<svg width="24" height="24" viewBox="0 0 24 24" fill="none" xmlns="http://www.w3.org/2000/svg">
<g clip-path="url(#clip0_291_841)">
<path fill-rule="evenodd" clip-rule="evenodd" d="M2.48535 12.25C2.48535 12.0511 2.56437 11.8603 2.70502 11.7197C2.84567 11.579 3.03644 11.5 3.23535 11.5C8.62535 11.5 12.9934 15.865 12.9934 21.25C12.9934 21.449 12.9143 21.6399 12.7735 21.7807C12.6328 21.9214 12.4419 22.0005 12.2429 22.0005C12.0438 22.0005 11.8529 21.9214 11.7122 21.7807C11.5714 21.6399 11.4924 21.449 11.4924 21.25C11.4924 16.694 7.79535 13 3.23535 13C3.03644 13 2.84567 12.921 2.70502 12.7803C2.56437 12.6397 2.48535 12.4489 2.48535 12.25ZM3.23535 14.5C3.03644 14.5 2.84567 14.579 2.70502 14.7197C2.56437 14.8603 2.48535 15.0511 2.48535 15.25C2.48535 15.4489 2.56437 15.6397 2.70502 15.7803C2.84567 15.921 3.03644 16 3.23535 16C3.92513 15.9995 4.60825 16.1349 5.24567 16.3985C5.88309 16.6621 6.46232 17.0487 6.95025 17.5363C7.43818 18.0238 7.82525 18.6028 8.08934 19.24C8.35342 19.8772 8.48935 20.5602 8.48935 21.25C8.48935 21.4492 8.56847 21.6402 8.70931 21.781C8.85015 21.9219 9.04117 22.001 9.24035 22.001C9.43953 22.001 9.63055 21.9219 9.77139 21.781C9.91223 21.6402 9.99135 21.4492 9.99135 21.25C9.99096 20.3632 9.8159 19.4851 9.47616 18.666C9.13643 17.8468 8.63868 17.1026 8.01132 16.4758C7.38397 15.849 6.6393 15.3519 5.81984 15.0129C5.00038 14.6739 4.12217 14.4996 3.23535 14.5ZM2.48535 18.25C2.48535 18.0511 2.56437 17.8603 2.70502 17.7197C2.84567 17.579 3.03644 17.5 3.23535 17.5C3.72806 17.4996 4.21602 17.5963 4.67134 17.7846C5.12665 17.9729 5.5404 18.249 5.88894 18.5973C6.23748 18.9455 6.51397 19.3591 6.70261 19.8142C6.89126 20.2694 6.98835 20.7573 6.98835 21.25C6.98835 21.449 6.90928 21.6399 6.76854 21.7807C6.62779 21.9214 6.4369 22.0005 6.23785 22.0005C6.03881 22.0005 5.84791 21.9214 5.70717 21.7807C5.56642 21.6399 5.48735 21.449 5.48735 21.25C5.48735 20.9544 5.42909 20.6616 5.31589 20.3885C5.20269 20.1154 5.03678 19.8673 4.82764 19.6583C4.61849 19.4493 4.37022 19.2837 4.097 19.1707C3.82379 19.0577 3.53099 18.9997 3.23535 19C3.03644 19 2.84567 18.921 2.70502 18.7803C2.56437 18.6397 2.48535 18.4489 2.48535 18.25Z" fill="#A5732F"/>
<path d="M2 10.369C2.355 10.136 2.78 10 3.235 10C9.453 10 14.495 15.037 14.495 21.25C14.495 21.513 14.449 21.765 14.366 22C17.893 21.999 19.694 21.96 20.828 20.788C22 19.576 22 17.626 22 13.725V12.204C22 9.915 22 8.771 21.48 7.823C20.96 6.875 20.012 6.286 18.113 5.108L16.11 3.867C14.104 2.622 13.101 2 11.992 2C10.883 2 9.88 2.622 7.872 3.867L5.872 5.108C3.972 6.286 3.023 6.874 2.504 7.823C2.146 8.476 2.034 9.221 2 10.368" fill="#A5732F"/>
</g>
<defs>
<clipPath id="clip0_291_841">
<rect width="24" height="24" fill="white"/>
</clipPath>
</defs>
</svg>
